<?xml version="1.0" encoding="utf-8"?>
<!-- Generator: Adobe Illustrator 16.0.0, SVG Export Plug-In . SVG Version: 6.00 Build 0)  -->
<!DOCTYPE svg PUBLIC "-//W3C//DTD SVG 1.1//EN" "http://www.w3.org/Graphics/SVG/1.1/DTD/svg11.dtd">
<svg version="1.1" id="Layer_1" xmlns="http://www.w3.org/2000/svg" xmlns:xlink="http://www.w3.org/1999/xlink" x="0px" y="0px"
	 width="100%" height="100%" viewBox="0 0 538.5 110" enable-background="new 0 0 538.5 110" xml:space="preserve">
<g>
	<path fill="#FFFFFF" d="M39.067,35.268h9.967l7.779,42.451h-8.878l-1.479-10.885H32.71L28.23,77.719h-8.593L39.067,35.268z
		 M35.451,60.246h10.081l-0.62-4.641c-0.709-4.412-1.183-9.281-1.754-13.864h-0.286c-1.729,4.641-3.652,9.452-5.521,13.864
		L35.451,60.246z"/>
	<path fill="#FFFFFF" d="M59.201,61.678c1.438-10.427,8.853-16.843,15.783-16.843c3.608,0,5.653,1.375,7.652,3.495l0.409-5.042
		l1.556-11.286h8.363l-6.304,45.717h-6.816l-0.173-3.322h-0.229c-2.665,2.291-6.125,4.124-9.448,4.124
		C62.034,78.521,57.748,72.219,59.201,61.678z M79.601,68.266l1.943-14.093c-1.703-1.776-3.678-2.406-5.683-2.406
		c-3.608,0-7.118,3.438-8.003,9.854c-0.917,6.646,1.031,9.968,5.27,9.968C75.363,71.588,77.379,70.672,79.601,68.266z"/>
	<path fill="#FFFFFF" d="M94.124,45.637h8.478l2.493,15.983c0.425,3.151,0.826,6.474,1.235,9.739h0.286
		c1.31-3.266,2.627-6.588,3.92-9.739l6.901-15.983h8.077l-15.136,32.082h-9.737L94.124,45.637z"/>
	<path fill="#FFFFFF" d="M122.409,69.01c0.948-6.874,7.002-10.483,20.137-11.857c0.263-3.151-0.78-5.557-4.733-5.557
		c-2.979,0-6.024,1.317-9.24,3.036l-2.269-5.557c4.104-2.349,8.947-4.239,13.988-4.239c8.134,0,11.644,4.869,10.364,14.15
		l-2.583,18.733H141.2l-0.1-3.438h-0.229c-3.138,2.406-6.599,4.239-10.265,4.239C124.878,78.521,121.658,74.453,122.409,69.01z
		 M140.942,68.781l0.893-6.474c-7.981,0.974-10.917,3.151-11.312,6.016c-0.348,2.521,1.279,3.609,3.742,3.609
		C136.67,71.933,138.604,70.787,140.942,68.781z"/>
	<path fill="#FFFFFF" d="M158.802,45.637h6.874l0.045,4.239h0.172c3.186-2.75,6.767-5.041,11.12-5.041
		c6.932,0,9.247,4.812,8.133,12.89l-2.757,19.994h-8.421l2.615-18.963c0.687-4.984-0.45-6.703-3.601-6.703
		c-2.635,0-4.47,1.26-7.143,3.609l-3.041,22.056h-8.42L158.802,45.637z"/>
	<path fill="#FFFFFF" d="M189.015,61.678c1.469-10.656,9.998-16.843,18.705-16.843c3.952,0,6.775,1.547,8.847,3.552l-4.76,5.442
		c-1.415-1.375-2.801-2.12-4.577-2.12c-4.927,0-8.794,3.953-9.624,9.968c-0.837,6.072,2.005,9.969,6.588,9.969
		c2.291,0,4.618-1.09,6.599-2.578l2.614,5.557c-3.465,2.692-7.525,3.896-11.077,3.896C193.451,78.521,187.545,72.334,189.015,61.678
		z"/>
	<path fill="#FFFFFF" d="M215.194,61.678c1.43-10.37,9.654-16.843,17.272-16.843c8.821,0,12.512,6.473,11.295,15.296
		c-0.221,1.604-0.606,3.15-0.938,3.896h-19.762c-0.039,5.271,3.018,8.021,7.772,8.021c2.636,0,5.038-0.802,7.526-2.234l2.153,5.156
		c-3.451,2.178-7.708,3.552-11.66,3.552C219.86,78.521,213.733,72.275,215.194,61.678z M236.781,58.412
		c0.592-4.296-0.976-7.046-5.101-7.046c-3.379,0-6.689,2.406-7.96,7.046H236.781z"/>
	<path fill="#FFFFFF" d="M246.359,61.678c1.438-10.427,8.853-16.843,15.783-16.843c3.608,0,5.653,1.375,7.652,3.495l0.408-5.042
		l1.557-11.286h8.363l-6.304,45.717h-6.816l-0.173-3.322h-0.229c-2.665,2.291-6.125,4.124-9.448,4.124
		C249.192,78.521,244.906,72.219,246.359,61.678z M266.759,68.266l1.943-14.093c-1.703-1.776-3.678-2.406-5.683-2.406
		c-3.608,0-7.118,3.438-8.003,9.854c-0.917,6.646,1.031,9.968,5.27,9.968C262.521,71.588,264.537,70.672,266.759,68.266z"/>
	<path fill="#FFFFFF" d="M297.835,35.268h9.394l4.477,19.879c0.554,2.635,0.969,5.442,1.456,8.134h0.286
		c1.287-2.692,2.42-5.499,3.699-8.134l9.787-19.879h9.395l-5.854,42.451h-7.733l2.44-17.702c0.554-4.011,1.997-9.911,3.009-13.921
		h-0.287l-4.812,9.968l-8.986,17.817h-4.869l-4.131-17.817l-2.005-9.968h-0.229c-0.152,4.01-0.278,9.911-0.831,13.921L299.6,77.719
		h-7.618L297.835,35.268z"/>
	<path fill="#FFFFFF" d="M337.522,69.01c0.948-6.874,7.003-10.483,20.138-11.857c0.263-3.151-0.78-5.557-4.733-5.557
		c-2.979,0-6.023,1.317-9.239,3.036l-2.27-5.557c4.104-2.349,8.947-4.239,13.988-4.239c8.134,0,11.644,4.869,10.364,14.15
		l-2.583,18.733h-6.874l-0.099-3.438h-0.229c-3.139,2.406-6.599,4.239-10.265,4.239C339.993,78.521,336.772,74.453,337.522,69.01z
		 M356.057,68.781l0.893-6.474c-7.981,0.974-10.917,3.151-11.313,6.016c-0.347,2.521,1.279,3.609,3.742,3.609
		C351.784,71.933,353.719,70.787,356.057,68.781z"/>
	<path fill="#FFFFFF" d="M371.154,66.49l1.959-14.208h-4.525l0.861-6.245l5.039-0.401l2.166-8.65h6.988l-1.192,8.65h7.905
		l-0.917,6.646h-7.905l-1.959,14.208c-0.505,3.666,0.747,5.385,3.611,5.385c1.031,0,2.338-0.344,3.245-0.688l0.529,6.13
		c-1.797,0.573-4.117,1.203-6.925,1.203C372.417,78.521,370.167,73.65,371.154,66.49z"/>
	<path fill="#FFFFFF" d="M389.291,61.678c1.43-10.37,9.654-16.843,17.272-16.843c8.821,0,12.512,6.473,11.295,15.296
		c-0.221,1.604-0.606,3.15-0.938,3.896h-19.762c-0.039,5.271,3.019,8.021,7.772,8.021c2.636,0,5.037-0.802,7.525-2.234l2.153,5.156
		c-3.45,2.178-7.707,3.552-11.659,3.552C393.957,78.521,387.829,72.275,389.291,61.678z M410.878,58.412
		c0.593-4.296-0.976-7.046-5.101-7.046c-3.379,0-6.689,2.406-7.96,7.046H410.878z"/>
	<path fill="#FFFFFF" d="M424.501,45.637h6.874l-0.152,5.671h0.172c2.926-4.182,6.678-6.473,10-6.473
		c1.775,0,2.768,0.286,3.686,0.687l-2.435,7.276c-1.099-0.344-1.992-0.516-3.31-0.516c-2.521,0-5.784,1.661-8.2,6.302l-2.639,19.135
		h-8.42L424.501,45.637z"/>
	<path fill="#FFFFFF" d="M447.187,45.637h8.42l-4.424,32.082h-8.42L447.187,45.637z M447.85,35.84
		c0.379-2.75,2.637-4.583,5.558-4.583c2.864,0,4.616,1.833,4.237,4.583c-0.387,2.808-2.645,4.641-5.509,4.641
		C449.215,40.481,447.463,38.648,447.85,35.84z"/>
	<path fill="#FFFFFF" d="M457.481,69.01c0.948-6.874,7.003-10.483,20.138-11.857c0.263-3.151-0.78-5.557-4.733-5.557
		c-2.979,0-6.023,1.317-9.239,3.036l-2.27-5.557c4.104-2.349,8.947-4.239,13.988-4.239c8.134,0,11.644,4.869,10.364,14.15
		l-2.583,18.733h-6.874l-0.099-3.438h-0.229c-3.139,2.406-6.599,4.239-10.265,4.239C459.952,78.521,456.731,74.453,457.481,69.01z
		 M476.016,68.781l0.893-6.474c-7.981,0.974-10.917,3.151-11.313,6.016c-0.347,2.521,1.279,3.609,3.742,3.609
		C471.743,71.933,473.678,70.787,476.016,68.781z"/>
	<path fill="#FFFFFF" d="M490.69,68.725l5.063-36.723h8.42l-5.111,37.066c-0.269,1.947,0.504,2.578,1.306,2.578
		c0.344,0,0.573,0,1.161-0.115l0.171,6.244c-1.029,0.401-2.451,0.745-4.456,0.745C491.401,78.521,489.869,74.682,490.69,68.725z"/>
	<path fill="#FFFFFF" d="M502.682,73.995l4.564-5.271c2.556,2.233,5.131,3.494,8.109,3.494c3.208,0,4.831-1.375,5.107-3.38
		c0.331-2.406-2.841-3.495-6.039-4.813c-3.854-1.546-8.04-4.01-7.297-9.395c0.79-5.729,5.991-9.796,13.323-9.796
		c4.64,0,7.979,1.948,10.338,3.953l-4.483,5.099c-2.063-1.661-4.146-2.75-6.495-2.75c-2.921,0-4.47,1.26-4.723,3.094
		c-0.323,2.349,2.536,3.207,5.742,4.469c4.018,1.604,8.423,3.723,7.601,9.682c-0.773,5.614-5.808,10.14-14.171,10.14
		C509.963,78.521,505.525,76.631,502.682,73.995z"/>
</g>
</svg>
