<?xml version="1.0" encoding="utf-8"?>
<!-- Generator: Adobe Illustrator 16.0.0, SVG Export Plug-In . SVG Version: 6.00 Build 0)  -->
<!DOCTYPE svg PUBLIC "-//W3C//DTD SVG 1.1//EN" "http://www.w3.org/Graphics/SVG/1.1/DTD/svg11.dtd">
<svg version="1.1" id="Layer_1" xmlns="http://www.w3.org/2000/svg" xmlns:xlink="http://www.w3.org/1999/xlink" x="0px" y="0px"
	 width="100%" height="100%" viewBox="0 0 336 42" enable-background="new 0 0 336 42" xml:space="preserve">
<g enable-background="new    ">
	<path fill="#FFFFFF" d="M81.616,11.712h5.098l3.979,21.708h-4.541l-0.756-5.566h-7.031l-2.291,5.566h-4.395L81.616,11.712z
		 M79.767,24.484h5.156l-0.317-2.373c-0.363-2.255-0.605-4.745-0.897-7.088h-0.146c-0.884,2.373-1.868,4.833-2.823,7.088
		L79.767,24.484z"/>
	<path fill="#FFFFFF" d="M92.086,25.217c0.735-5.331,4.528-8.612,8.073-8.612c1.846,0,2.891,0.704,3.914,1.787l0.209-2.578
		l0.796-5.771h4.277l-3.224,23.377h-3.486l-0.088-1.699h-0.117c-1.363,1.172-3.133,2.109-4.832,2.109
		C93.536,33.83,91.343,30.607,92.086,25.217z M102.521,28.586l0.994-7.206c-0.871-0.909-1.881-1.231-2.907-1.231
		c-1.846,0-3.641,1.757-4.093,5.039c-0.469,3.398,0.527,5.098,2.695,5.098C100.353,30.285,101.384,29.816,102.521,28.586z"/>
	<path fill="#FFFFFF" d="M110.122,17.015h4.336l1.275,8.173c0.217,1.611,0.422,3.311,0.631,4.98h0.146
		c0.67-1.67,1.343-3.369,2.005-4.98l3.529-8.173h4.131l-7.741,16.405h-4.98L110.122,17.015z"/>
	<path fill="#FFFFFF" d="M124.762,28.967c0.485-3.516,3.581-5.361,10.299-6.064c0.134-1.611-0.399-2.841-2.421-2.841
		c-1.523,0-3.081,0.673-4.726,1.552l-1.161-2.841c2.099-1.201,4.577-2.168,7.155-2.168c4.16,0,5.955,2.49,5.301,7.235l-1.321,9.58
		h-3.516l-0.051-1.758h-0.117c-1.605,1.23-3.375,2.168-5.25,2.168C126.025,33.83,124.378,31.75,124.762,28.967z M134.241,28.85
		l0.456-3.311c-4.082,0.498-5.583,1.611-5.785,3.076c-0.178,1.289,0.653,1.846,1.913,1.846
		C132.056,30.461,133.045,29.875,134.241,28.85z"/>
	<path fill="#FFFFFF" d="M143.548,17.015h3.516l0.023,2.168h0.088c1.629-1.406,3.461-2.578,5.688-2.578
		c3.545,0,4.729,2.461,4.159,6.591l-1.41,10.225h-4.307l1.337-9.697c0.352-2.548-0.23-3.427-1.842-3.427
		c-1.348,0-2.286,0.644-3.653,1.845l-1.555,11.279h-4.307L143.548,17.015z"/>
	<path fill="#FFFFFF" d="M159.174,25.217c0.751-5.448,5.114-8.612,9.567-8.612c2.021,0,3.465,0.791,4.524,1.816l-2.435,2.783
		c-0.724-0.703-1.433-1.083-2.34-1.083c-2.52,0-4.498,2.021-4.922,5.097c-0.428,3.105,1.026,5.098,3.37,5.098
		c1.172,0,2.361-0.557,3.375-1.318l1.337,2.842c-1.772,1.377-3.849,1.992-5.666,1.992C161.444,33.83,158.423,30.666,159.174,25.217z
		"/>
	<path fill="#FFFFFF" d="M172.737,25.217c0.731-5.302,4.938-8.612,8.835-8.612c4.512,0,6.398,3.311,5.776,7.821
		c-0.113,0.82-0.31,1.611-0.479,1.992h-10.107c-0.021,2.695,1.544,4.102,3.976,4.102c1.348,0,2.576-0.41,3.849-1.143l1.102,2.637
		c-1.765,1.112-3.942,1.816-5.964,1.816C175.124,33.83,171.99,30.637,172.737,25.217z M183.778,23.547
		c0.303-2.197-0.499-3.603-2.608-3.603c-1.729,0-3.422,1.231-4.071,3.603H183.778z"/>
	<path fill="#FFFFFF" d="M188.851,25.217c0.735-5.331,4.528-8.612,8.073-8.612c1.846,0,2.891,0.704,3.913,1.787l0.209-2.578
		l0.796-5.771h4.277l-3.224,23.377h-3.486l-0.088-1.699h-0.117c-1.362,1.172-3.133,2.109-4.832,2.109
		C190.3,33.83,188.107,30.607,188.851,25.217z M199.285,28.586l0.993-7.206c-0.87-0.909-1.881-1.231-2.906-1.231
		c-1.846,0-3.641,1.757-4.093,5.039c-0.469,3.398,0.527,5.098,2.695,5.098C197.117,30.285,198.148,29.816,199.285,28.586z"/>
	<path fill="#FFFFFF" d="M215.526,11.712h4.805l2.29,10.165c0.283,1.348,0.495,2.783,0.745,4.16h0.146
		c0.658-1.377,1.237-2.813,1.892-4.16l5.005-10.165h4.805l-2.993,21.708h-3.955l1.248-9.053c0.283-2.051,1.021-5.067,1.539-7.118
		h-0.146l-2.461,5.096l-4.597,9.111h-2.49l-2.112-9.111l-1.025-5.096h-0.117c-0.078,2.05-0.143,5.067-0.426,7.118l-1.248,9.053
		h-3.896L215.526,11.712z"/>
	<path fill="#FFFFFF" d="M235.998,28.967c0.484-3.516,3.581-5.361,10.299-6.064c0.135-1.611-0.399-2.841-2.421-2.841
		c-1.523,0-3.081,0.673-4.726,1.552l-1.161-2.841c2.1-1.201,4.577-2.168,7.155-2.168c4.16,0,5.955,2.49,5.301,7.235l-1.321,9.58
		h-3.516l-0.051-1.758h-0.117c-1.604,1.23-3.375,2.168-5.25,2.168C237.261,33.83,235.614,31.75,235.998,28.967z M245.478,28.85
		l0.456-3.311c-4.082,0.498-5.584,1.611-5.785,3.076c-0.178,1.289,0.653,1.846,1.913,1.846
		C243.292,30.461,244.281,29.875,245.478,28.85z"/>
	<path fill="#FFFFFF" d="M253.372,27.678l1.002-7.265h-2.314l0.44-3.193l2.577-0.205l1.107-4.423h3.574l-0.609,4.423h4.043
		l-0.469,3.398h-4.043l-1.002,7.265c-0.259,1.875,0.382,2.754,1.847,2.754c0.527,0,1.196-0.176,1.66-0.352l0.271,3.135
		c-0.919,0.293-2.106,0.615-3.542,0.615C254.018,33.83,252.867,31.34,253.372,27.678z"/>
	<path fill="#FFFFFF" d="M262.822,25.217c0.731-5.302,4.938-8.612,8.835-8.612c4.512,0,6.398,3.311,5.776,7.821
		c-0.113,0.82-0.31,1.611-0.479,1.992h-10.107c-0.021,2.695,1.544,4.102,3.976,4.102c1.348,0,2.576-0.41,3.849-1.143l1.102,2.637
		c-1.765,1.112-3.942,1.816-5.964,1.816C265.209,33.83,262.075,30.637,262.822,25.217z M273.863,23.547
		c0.303-2.197-0.499-3.603-2.608-3.603c-1.729,0-3.422,1.231-4.071,3.603H273.863z"/>
	<path fill="#FFFFFF" d="M281.004,17.015h3.516l-0.078,2.9h0.088c1.496-2.138,3.416-3.311,5.115-3.311
		c0.908,0,1.415,0.146,1.885,0.352l-1.245,3.72c-0.563-0.175-1.019-0.264-1.692-0.264c-1.289,0-2.959,0.85-4.194,3.222l-1.35,9.785
		h-4.307L281.004,17.015z"/>
	<path fill="#FFFFFF" d="M292.781,17.015h4.307l-2.263,16.405h-4.307L292.781,17.015z M293.12,12.006
		c0.194-1.406,1.349-2.344,2.843-2.344c1.465,0,2.361,0.938,2.167,2.344c-0.198,1.435-1.353,2.373-2.817,2.373
		C293.818,14.378,292.922,13.441,293.12,12.006z"/>
	<path fill="#FFFFFF" d="M298.222,28.967c0.484-3.516,3.581-5.361,10.299-6.064c0.135-1.611-0.399-2.841-2.421-2.841
		c-1.523,0-3.081,0.673-4.726,1.552l-1.161-2.841c2.1-1.201,4.577-2.168,7.155-2.168c4.16,0,5.955,2.49,5.301,7.235l-1.321,9.58
		h-3.516l-0.051-1.758h-0.117c-1.604,1.23-3.375,2.168-5.25,2.168C299.484,33.83,297.838,31.75,298.222,28.967z M307.701,28.85
		l0.456-3.311c-4.082,0.498-5.584,1.611-5.785,3.076c-0.178,1.289,0.653,1.846,1.913,1.846
		C305.516,30.461,306.505,29.875,307.701,28.85z"/>
	<path fill="#FFFFFF" d="M315.38,28.82l2.589-18.777h4.307l-2.613,18.953c-0.138,0.996,0.258,1.318,0.668,1.318
		c0.176,0,0.293,0,0.594-0.059l0.087,3.193c-0.526,0.204-1.254,0.381-2.279,0.381C315.743,33.83,314.96,31.867,315.38,28.82z"/>
	<path fill="#FFFFFF" d="M321.688,31.516l2.335-2.695c1.307,1.143,2.624,1.787,4.147,1.787c1.641,0,2.471-0.703,2.611-1.729
		c0.17-1.23-1.452-1.787-3.088-2.461c-1.971-0.791-4.112-2.051-3.732-4.805c0.404-2.929,3.064-5.009,6.814-5.009
		c2.373,0,4.081,0.996,5.287,2.021l-2.293,2.607c-1.055-0.849-2.12-1.406-3.321-1.406c-1.494,0-2.286,0.644-2.416,1.582
		c-0.165,1.201,1.298,1.64,2.938,2.285c2.055,0.82,4.308,1.904,3.888,4.951c-0.396,2.871-2.972,5.186-7.249,5.186
		C325.411,33.83,323.143,32.862,321.688,31.516z"/>
</g>
<g>
	<path fill="#FFFFFF" d="M68.283,6.5H11.126c-1.32,0-2.504,0.584-2.752,1.8L2.655,36.324C2.409,37.537,3.193,38.5,4.408,38.5H62.08
		c1.215,0,2.405-1.161,2.651-2.374l5.201-27.739C70.179,7.171,69.394,6.5,68.283,6.5z M20.733,34.5l-2.049-8.762l-1.54,1.962
		l-1.377,6.8H9.81l5.101-24.056l5.953-0.18l-1.835,8.496L30.56,6.5h6.528L23.21,21.631L26.64,34.5H20.733z M43.013,28.762
		c-2.004,5.76-9.237,5.539-9.237,5.539c-8.225,0-6.708-6.234-6.708-6.234l2.227-10.851c1.531-5.756,9.235-6.126,9.236-6.126
		c8.024-0.167,6.912,6.751,6.912,6.751L44.868,21.5h-5.64l0.576-3.659c0.25-1.812-2.1-2.244-2.1-2.244
		c-2.589,0.207-2.652,1.841-2.652,1.841l-2.293,11.078c-0.524,1.976,1.878,1.674,1.878,1.674c2.318,0.162,2.87-2.058,2.87-2.058
		l0.526-2.632h5.638L43.013,28.762z M62.617,17.841L62.042,21.5h-5.64l0.576-3.659c0.25-1.812-2.1-2.244-2.1-2.244
		c-2.587,0.207-2.651,1.841-2.651,1.841l-2.295,11.078c-0.522,1.976,1.877,1.674,1.877,1.674c2.317,0.162,2.874-2.058,2.874-2.058
		l0.523-2.632h5.636l-0.654,3.262c-2.002,5.76-9.237,5.539-9.237,5.539c-8.227,0-6.708-6.234-6.708-6.234l2.226-10.851
		c1.533-5.756,9.237-5.648,9.237-5.648C63.73,11.4,62.617,17.841,62.617,17.841z"/>
	<polygon fill="#FFFFFF" points="41.396,1.004 34.851,1 30.56,5.703 37.084,5.696 	"/>
</g>
</svg>
